<?xml version="1.0" encoding="iso-8859-1"?>
<!-- Generator: Adobe Illustrator 19.0.0, SVG Export Plug-In . SVG Version: 6.00 Build 0)  -->
<svg version="1.1" id="Capa_1" xmlns="http://www.w3.org/2000/svg" xmlns:xlink="http://www.w3.org/1999/xlink" x="0px" y="0px"
	 viewBox="0 0 204.8 204.8" style="enable-background:new 0 0 204.8 204.8;" xml:space="preserve">
<g>
	<g>
		<path d="M196.992,63.118c-0.724-1.741-2.719-2.565-4.461-1.841c-1.741,0.724-2.565,2.72-1.841,4.461
			c4.833,11.624,7.284,23.96,7.284,36.663c0,52.7-42.873,95.573-95.573,95.573S6.827,155.1,6.827,102.4S49.7,6.827,102.4,6.827
			c12.454,0,24.568,2.36,36.006,7.013c1.746,0.712,3.738-0.131,4.448-1.876c0.71-1.746-0.13-3.738-1.876-4.448
			C128.719,2.528,115.739,0,102.4,0C45.937,0,0,45.937,0,102.4s45.937,102.4,102.4,102.4s102.4-45.937,102.398-102.398
			C204.798,88.793,202.172,75.576,196.992,63.118z"/>
	</g>
</g>
<g>
	<g>
		<path d="M173.85,101.105c-0.72-2.666-1.41-5.27-2.08-7.799c-1.502-5.671-2.922-11.029-4.366-15.87
			c-0.541-1.809-2.444-2.836-4.246-2.297c-1.807,0.539-2.835,2.441-2.297,4.246c1.415,4.745,2.821,10.051,4.308,15.669
			c0.674,2.54,1.367,5.156,2.091,7.832c5.736,21.241,4.439,37.446,0.608,44.083c-1.026,1.775-2.207,2.852-3.511,3.198
			c-3.444,0.877-12.803-12.679-16.809-18.48c-3.872-5.608-6.932-10.039-9.504-12.035c-2.342-1.816-7.335-4.239-23.617-4.313
			l-20.84,0.015c-14.085-0.181-22.852,1.215-26.825,4.299c-2.574,1.997-5.632,6.427-9.506,12.035
			c-4.007,5.801-13.372,19.383-16.809,18.48c-1.304-0.346-2.485-1.423-3.511-3.198c-3.833-6.637-5.129-22.842,0.608-44.083
			c0.72-2.664,1.41-5.27,2.08-7.799c5.4-20.379,9.665-36.477,17.809-38.888c4.031-1.193,11.527-3.415,19.446,1.282
			c10.259,6.089,40.789,6.088,51.041,0.003c0.408-0.241,0.816-0.466,1.22-0.672c1.678-0.86,2.34-2.918,1.481-4.594
			c-0.86-1.678-2.917-2.343-4.594-1.481c-0.526,0.271-1.053,0.558-1.586,0.875c-8.24,4.89-35.84,4.886-44.08,0
			c-10.484-6.222-20.2-3.342-24.888-1.952c-11.802,3.494-16.266,20.35-22.446,43.68c-0.669,2.521-1.355,5.113-2.072,7.769
			c-5.495,20.342-5.466,39.685,0.07,49.277c1.964,3.405,4.545,5.552,7.668,6.381c0.643,0.171,1.287,0.253,1.93,0.253
			c7.436,0,14.956-10.892,22.255-21.453c3.113-4.511,6.33-9.172,8.071-10.522c1.21-0.937,5.856-3.099,22.596-2.865l20.871-0.015
			c14.283,0.065,18.355,2.036,19.446,2.881c1.739,1.35,4.958,6.011,8.071,10.522c7.926,11.474,16.121,23.364,24.18,21.197
			c3.123-0.829,5.704-2.976,7.668-6.381C179.316,140.79,179.345,121.446,173.85,101.105z"/>
	</g>
</g>
<g>
	<g>
		<rect x="64.853" y="71.68" width="6.827" height="27.307"/>
	</g>
</g>
<g>
	<g>
		<rect x="54.613" y="81.92" width="27.307" height="6.827"/>
	</g>
</g>
<g>
	<g>
		<path d="M134.827,71.68c-8.47,0-15.36,6.89-15.36,15.36c0,8.47,6.89,15.36,15.36,15.36c8.47,0,15.36-6.89,15.36-15.36
			C150.187,78.57,143.297,71.68,134.827,71.68z M134.827,95.573c-4.705,0-8.533-3.828-8.533-8.533c0-4.705,3.828-8.533,8.533-8.533
			c4.705,0,8.533,3.828,8.533,8.533C143.36,91.745,139.532,95.573,134.827,95.573z"/>
	</g>
</g>
<g>
	<g>
		<path d="M163.84,0c-22.584,0-40.96,18.376-40.96,40.96c0,22.584,18.376,40.96,40.96,40.96c22.584,0,40.96-18.376,40.96-40.96
			C204.8,18.376,186.424,0,163.84,0z M163.84,75.093c-18.821,0-34.133-15.312-34.133-34.133S145.019,6.827,163.84,6.827
			s34.133,15.312,34.133,34.133S182.661,75.093,163.84,75.093z"/>
	</g>
</g>
<g>
	<g>
		<path d="M163.84,17.067c-1.884,0-3.413,1.529-3.413,3.413v40.96c0,1.884,1.529,3.413,3.413,3.413s3.413-1.529,3.413-3.413V20.48
			C167.253,18.596,165.724,17.067,163.84,17.067z"/>
	</g>
</g>
<g>
	<g>
		<path d="M184.32,37.547h-40.96c-1.884,0-3.413,1.529-3.413,3.413s1.529,3.413,3.413,3.413h40.96c1.884,0,3.413-1.529,3.413-3.413
			S186.204,37.547,184.32,37.547z"/>
	</g>
</g>
<g>
</g>
<g>
</g>
<g>
</g>
<g>
</g>
<g>
</g>
<g>
</g>
<g>
</g>
<g>
</g>
<g>
</g>
<g>
</g>
<g>
</g>
<g>
</g>
<g>
</g>
<g>
</g>
<g>
</g>
</svg>
